<?xml version="1.0" standalone="no"?>
<!DOCTYPE svg PUBLIC "-//W3C//DTD SVG 20010904//EN"
 "http://www.w3.org/TR/2001/REC-SVG-20010904/DTD/svg10.dtd">
<svg version="1.0" xmlns="http://www.w3.org/2000/svg"
 width="1280.000000pt" height="977.000000pt" viewBox="0 0 1280.000000 977.000000"
 preserveAspectRatio="xMidYMid meet">
<g transform="translate(0.000000,977.000000) scale(0.100000,-0.100000)"
fill="#000000" stroke="none">
<path d="M5700 9128 c-184 -353 -379 -727 -433 -830 l-98 -188 908 2 907 3
483 820 c265 451 482 823 483 828 0 4 -431 7 -957 7 l-958 -1 -335 -641z"/>
<path d="M8501 8947 c-237 -453 -431 -827 -431 -830 0 -4 401 -6 891 -5 l891
3 484 823 c266 453 484 826 484 828 0 2 -425 4 -944 4 l-944 0 -431 -823z"/>
<path d="M11696 9718 c-13 -29 -182 -397 -376 -818 -194 -421 -354 -771 -357
-777 -4 -10 174 -13 871 -13 l876 0 0 830 0 830 -495 0 -495 0 -24 -52z"/>
<path d="M0 8920 l0 -810 2071 2 2071 3 439 800 c242 440 439 803 439 808 0 4
-1129 7 -2510 7 l-2510 0 0 -810z"/>
<path d="M54 6763 c-4 -115 -8 -1520 -8 -3123 l-1 -2915 23 -71 c66 -210 200
-380 392 -498 103 -64 212 -104 359 -132 l125 -24 5472 0 5472 0 127 25 c224
45 387 129 527 272 132 136 200 265 237 452 21 103 21 106 21 3162 l0 3059
-6369 0 -6369 0 -8 -207z m5436 -1866 c83 -28 2091 -950 2234 -1025 239 -126
341 -315 263 -486 -32 -70 -120 -164 -204 -216 -54 -34 -1979 -928 -2178
-1012 -208 -87 -430 -91 -577 -11 -61 33 -136 107 -171 166 -14 24 -39 80 -54
123 l-28 79 0 990 0 990 27 80 c59 173 165 287 316 336 86 29 269 22 372 -14z"/>
</g>
</svg>
